<?xml version="1.0" encoding="UTF-8" standalone="no"?>
<!DOCTYPE svg PUBLIC "-//W3C//DTD SVG 1.1//EN"
 "http://www.w3.org/Graphics/SVG/1.1/DTD/svg11.dtd">
<!-- Generated by graphviz version 2.43.0 (0)
 -->
<!-- Title: web_util.c Pages: 1 -->
<svg width="331pt" height="137pt"
 viewBox="0.00 0.00 330.50 137.00" xmlns="http://www.w3.org/2000/svg" xmlns:xlink="http://www.w3.org/1999/xlink">
<g id="graph0" class="graph" transform="scale(1 1) rotate(0) translate(4 133)">
<title>web_util.c</title>
<!-- Node1 -->
<g id="Node000001" class="node">
<title>Node1</title>
<g id="a_Node000001"><a xlink:title="HTTP server lifecycle — implementation.">
<polygon fill="#999999" stroke="#666666" points="166.5,-129 100.5,-129 100.5,-110 166.5,-110 166.5,-129"/>
<text text-anchor="middle" x="133.5" y="-117" font-family="Helvetica,sans-Serif" font-size="10.00">web_util.c</text>
</a>
</g>
</g>
<!-- Node2 -->
<g id="Node000002" class="node">
<title>Node2</title>
<g id="a_Node000002"><a xlink:href="web__util_8h.html" target="_top" xlink:title="HTTP server lifecycle — init, start, health check, stop.">
<polygon fill="white" stroke="#666666" points="67,-74 0,-74 0,-55 67,-55 67,-74"/>
<text text-anchor="middle" x="33.5" y="-62" font-family="Helvetica,sans-Serif" font-size="10.00">web_util.h</text>
</a>
</g>
</g>
<!-- Node1&#45;&gt;Node2 -->
<g id="edge1_Node000001_Node000002" class="edge">
<title>Node1&#45;&gt;Node2</title>
<g id="a_edge1_Node000001_Node000002"><a xlink:title=" ">
<path fill="none" stroke="#63b8ff" d="M117.43,-109.98C101.64,-101.61 77.28,-88.7 58.87,-78.95"/>
<polygon fill="#63b8ff" stroke="#63b8ff" points="60.33,-75.76 49.86,-74.17 57.06,-81.95 60.33,-75.76"/>
</a>
</g>
</g>
<!-- Node3 -->
<g id="Node000003" class="node">
<title>Node3</title>
<g id="a_Node000003"><a xlink:title=" ">
<polygon fill="#e0e0e0" stroke="#999999" points="77,-19 16,-19 16,0 77,0 77,-19"/>
<text text-anchor="middle" x="46.5" y="-7" font-family="Helvetica,sans-Serif" font-size="10.00">esp_err.h</text>
</a>
</g>
</g>
<!-- Node1&#45;&gt;Node3 -->
<g id="edge3_Node000001_Node000003" class="edge">
<title>Node1&#45;&gt;Node3</title>
<g id="a_edge3_Node000001_Node000003"><a xlink:title=" ">
<path fill="none" stroke="#63b8ff" d="M126.38,-109.66C111.84,-91.61 78.54,-50.28 59.85,-27.08"/>
<polygon fill="#63b8ff" stroke="#63b8ff" points="62.47,-24.75 53.47,-19.16 57.02,-29.14 62.47,-24.75"/>
</a>
</g>
</g>
<!-- Node4 -->
<g id="Node000004" class="node">
<title>Node4</title>
<g id="a_Node000004"><a xlink:title=" ">
<polygon fill="#e0e0e0" stroke="#999999" points="198,-19 95,-19 95,0 198,0 198,-19"/>
<text text-anchor="middle" x="146.5" y="-7" font-family="Helvetica,sans-Serif" font-size="10.00">esp_http_server.h</text>
</a>
</g>
</g>
<!-- Node1&#45;&gt;Node4 -->
<g id="edge4_Node000001_Node000004" class="edge">
<title>Node1&#45;&gt;Node4</title>
<g id="a_edge4_Node000001_Node000004"><a xlink:title=" ">
<path fill="none" stroke="#63b8ff" d="M134.56,-109.66C136.67,-92.17 141.41,-52.8 144.24,-29.27"/>
<polygon fill="#63b8ff" stroke="#63b8ff" points="147.74,-29.51 145.46,-19.16 140.79,-28.67 147.74,-29.51"/>
</a>
</g>
</g>
<!-- Node5 -->
<g id="Node000005" class="node">
<title>Node5</title>
<g id="a_Node000005"><a xlink:title=" ">
<polygon fill="#e0e0e0" stroke="#999999" points="225,-74 162,-74 162,-55 225,-55 225,-74"/>
<text text-anchor="middle" x="193.5" y="-62" font-family="Helvetica,sans-Serif" font-size="10.00">esp_log.h</text>
</a>
</g>
</g>
<!-- Node1&#45;&gt;Node5 -->
<g id="edge5_Node000001_Node000005" class="edge">
<title>Node1&#45;&gt;Node5</title>
<g id="a_edge5_Node000001_Node000005"><a xlink:title=" ">
<path fill="none" stroke="#63b8ff" d="M143.14,-109.98C152.01,-102.15 165.37,-90.34 176.11,-80.86"/>
<polygon fill="#63b8ff" stroke="#63b8ff" points="178.51,-83.41 183.68,-74.17 173.87,-78.17 178.51,-83.41"/>
</a>
</g>
</g>
<!-- Node6 -->
<g id="Node000006" class="node">
<title>Node6</title>
<g id="a_Node000006"><a xlink:href="web___a_p_i_8h.html" target="_top" xlink:title="HTTP endpoint registration — static files, /api/status, /api/wol.">
<polygon fill="white" stroke="#666666" points="310,-74 243,-74 243,-55 310,-55 310,-74"/>
<text text-anchor="middle" x="276.5" y="-62" font-family="Helvetica,sans-Serif" font-size="10.00">web_API.h</text>
</a>
</g>
</g>
<!-- Node1&#45;&gt;Node6 -->
<g id="edge6_Node000001_Node000006" class="edge">
<title>Node1&#45;&gt;Node6</title>
<g id="a_edge6_Node000001_Node000006"><a xlink:title=" ">
<path fill="none" stroke="#63b8ff" d="M156.48,-109.98C180,-101.27 216.79,-87.63 243.44,-77.75"/>
<polygon fill="#63b8ff" stroke="#63b8ff" points="244.95,-80.93 253.11,-74.17 242.51,-74.36 244.95,-80.93"/>
</a>
</g>
</g>
<!-- Node2&#45;&gt;Node3 -->
<g id="edge2_Node000002_Node000003" class="edge">
<title>Node2&#45;&gt;Node3</title>
<g id="a_edge2_Node000002_Node000003"><a xlink:title=" ">
<path fill="none" stroke="#63b8ff" d="M35.65,-54.75C37.37,-47.72 39.85,-37.62 42,-28.84"/>
<polygon fill="#63b8ff" stroke="#63b8ff" points="45.41,-29.63 44.39,-19.09 38.61,-27.97 45.41,-29.63"/>
</a>
</g>
</g>
<!-- Node6&#45;&gt;Node4 -->
<g id="edge8_Node000006_Node000004" class="edge">
<title>Node6&#45;&gt;Node4</title>
<g id="a_edge8_Node000006_Node000004"><a xlink:title=" ">
<path fill="none" stroke="#63b8ff" d="M255.61,-54.98C234.42,-46.34 201.37,-32.87 177.2,-23.02"/>
<polygon fill="#63b8ff" stroke="#63b8ff" points="178.35,-19.7 167.77,-19.17 175.71,-26.19 178.35,-19.7"/>
</a>
</g>
</g>
<!-- Node7 -->
<g id="Node000007" class="node">
<title>Node7</title>
<g id="a_Node000007"><a xlink:title=" ">
<polygon fill="#e0e0e0" stroke="#999999" points="322.5,-19 230.5,-19 230.5,0 322.5,0 322.5,-19"/>
<text text-anchor="middle" x="276.5" y="-7" font-family="Helvetica,sans-Serif" font-size="10.00">esp_chip_info.h</text>
</a>
</g>
</g>
<!-- Node6&#45;&gt;Node7 -->
<g id="edge7_Node000006_Node000007" class="edge">
<title>Node6&#45;&gt;Node7</title>
<g id="a_edge7_Node000006_Node000007"><a xlink:title=" ">
<path fill="none" stroke="#63b8ff" d="M276.5,-54.75C276.5,-47.8 276.5,-37.85 276.5,-29.13"/>
<polygon fill="#63b8ff" stroke="#63b8ff" points="280,-29.09 276.5,-19.09 273,-29.09 280,-29.09"/>
</a>
</g>
</g>
</g>
</svg>
